HIERARCHY
ROOT Hips
{
  OFFSET -0.316068 0.00 -4.26057
  CHANNELS 6 Xposition Yposition Zposition Zrotation Xrotation Yrotation
  JOINT LHipJoint
  {
    OFFSET 0 0 0
    CHANNELS 3 Zrotation Xrotation Yrotation
    JOINT LeftUpLeg
    {
      OFFSET 1.8 -1.4 0.085
      CHANNELS 3 Zrotation Xrotation Yrotation
      JOINT LeftLeg
      {
        OFFSET 2.215 -6 0
        CHANNELS 3 Zrotation Xrotation Yrotation
        JOINT LeftFoot
        {
          OFFSET 2.5 -6.9 0
          CHANNELS 3 Zrotation Xrotation Yrotation
          JOINT LeftToeBase
          {
            OFFSET 0.2 -0.5 1.95
            CHANNELS 3 Zrotation Xrotation Yrotation
            End Site
            {
              OFFSET 0 0 1
            }
          }
        }
      }
    }
  }
  JOINT RHipJoint
  {
    OFFSET 0 0 0
    CHANNELS 3 Zrotation Xrotation Yrotation
    JOINT RightUpLeg
    {
      OFFSET -1.8 -1.4 0.085
      CHANNELS 3 Zrotation Xrotation Yrotation
      JOINT RightLeg
      {
        OFFSET -2.215 -6 0
        CHANNELS 3 Zrotation Xrotation Yrotation
        JOINT RightFoot
        {
          OFFSET -2.5 -6.9 0
          CHANNELS 3 Zrotation Xrotation Yrotation
          JOINT RightToeBase
          {
            OFFSET -0.2 -0.5 1.95
            CHANNELS 3 Zrotation Xrotation Yrotation
            End Site
            {
              OFFSET 0 0 1
            }
          }
        }
      }
    }
  }
  JOINT LowerBack
  {
    OFFSET 0 0 0
    CHANNELS 3 Zrotation Xrotation Yrotation
    JOINT Spine
    {
      OFFSET -0.087 1.94 -0.2889
      CHANNELS 3 Zrotation Xrotation Yrotation
      JOINT Spine1
      {
        OFFSET 0 1.95 0.06
        CHANNELS 3 Zrotation Xrotation Yrotation
        JOINT Neck
        {
          OFFSET 0 0 0
          CHANNELS 3 Zrotation Xrotation Yrotation
          JOINT Neck1
          {
            OFFSET 0 1.6 0.34
            CHANNELS 3 Zrotation Xrotation Yrotation
            JOINT Head
            {
              OFFSET 0 1.667 -0.24
              CHANNELS 3 Zrotation Xrotation Yrotation
              End Site
              {
                OFFSET 0 1.686 -0.12
              }
            }
          }
        }
        JOINT LeftShoulder
        {
          OFFSET 0 0 0
          CHANNELS 3 Zrotation Xrotation Yrotation
          JOINT LeftArm
          {
            OFFSET 2.7 1.55 -0.73
            CHANNELS 3 Zrotation Xrotation Yrotation
            JOINT LeftForeArm
            {
              OFFSET 5.45 0 0
              CHANNELS 3 Zrotation Xrotation Yrotation
              JOINT LeftHand
              {
                OFFSET 3.45 0 0
                CHANNELS 3 Zrotation Xrotation Yrotation
                JOINT LeftFingerBase
                {
                  OFFSET 0 0 0
                  CHANNELS 3 Zrotation Xrotation Yrotation
                  JOINT LeftHandIndex1
                  {
                    OFFSET 0.75 0 0
                    CHANNELS 3 Zrotation Xrotation Yrotation
                    End Site
                    {
                      OFFSET 0.6 0 0
                    }
                  }
                }
                JOINT LThumb
                {
                  OFFSET 0 0 0
                  CHANNELS 3 Zrotation Xrotation Yrotation
                  End Site
                  {
                    OFFSET 0.59 0 0.59
                  }
                }
              }
            }
          }
        }
        JOINT RightShoulder
        {
          OFFSET 0 0 0
          CHANNELS 3 Zrotation Xrotation Yrotation
          JOINT RightArm
          {
            OFFSET -2.7 1.55 -0.73
            CHANNELS 3 Zrotation Xrotation Yrotation
            JOINT RightForeArm
            {
              OFFSET -5.45 0 0
              CHANNELS 3 Zrotation Xrotation Yrotation
              JOINT RightHand
              {
                OFFSET -3.45 0 0
                CHANNELS 3 Zrotation Xrotation Yrotation
                JOINT RightFingerBase
                {
                  OFFSET 0 0 0
                  CHANNELS 3 Zrotation Xrotation Yrotation
                  JOINT RightHandIndex1
                  {
                    OFFSET -0.75 0 0
                    CHANNELS 3 Zrotation Xrotation Yrotation
                    End Site
                    {
                      OFFSET -0.6 0 0
                    }
                  }
                }
                JOINT RThumb
                {
                  OFFSET 0 0 0
                  CHANNELS 3 Zrotation Xrotation Yrotation
                  End Site
                  {
                    OFFSET -0.59 0 0.59
                  }
                }
              }
            }
          }
        }
      }
    }
  }
}
MOTION
Frames:	6
Frame Time:	0.00833333
0.901948 17.704 -21.7178 -9.64538 -1.03223 -21.8529 3.97569e-015 1.98785e-016 -0 -8.37517 -19.4488 2.61599 -12.4639 58.0897 -8.75287 26.9377 -18.8825 33.0475 2.50268e-029 -1.43125e-014 1.00187e-013 3.97569e-015 1.98785e-016 -0 20.5072 -18.0721 6.41484 -0.976236 23.2685 -30.2218 3.87914 2.33323 -1.17273 -1.19271e-015 -2.78299e-015 -3.18055e-015 3.97569e-015 1.98785e-016 -0 -22.907 -5.81533 -8.26627 24.9272 -3.0605 -10.4525 2.22709 -16.123 -5.26211 4.38781 20.7522 -6.28521 13.1872 16.7209 -17.8027 -17.0504 -0.868123 7.18734 62.0308 -65.8714 -49.7507 26.5611 34.3692 -51.392 44.9997 -9.57518 -27.0012 1.33602e-008 -1.43472e-007 8.42808e-007 1.76556e-031 -6.36111e-015 1.59028e-015 -3.18055e-015 -9.54166e-015 4.77083e-015 57.9397 -26.3816 -42.0975 16.035 -23.8931 138.942 -73.5939 38.5078 72.7175 -26.5084 -1.75406 14.5785 -5.6677e-008 -1.65658e-006 2.25111e-007 1.42398e-007 1.71286e-006 1.89034e-007 -9.93923e-016 0 -0 
0.867993 17.6751 -21.7332 -9.78586 -1.05509 -20.6242 -2.6339e-015 1.98785e-016 -6.36111e-015 -8.08165 -20.1447 2.42189 -12.3764 59.1734 -9.37342 27.0272 -18.9629 32.9076 -3.97569e-016 -1.43125e-014 9.85972e-014 -2.6339e-015 1.98785e-016 -6.36111e-015 19.6979 -18.0339 6.07226 -0.868325 22.719 -29.2215 4.33481 2.863 -1.4181 2.20695e-031 -1.98785e-015 6.36111e-015 -2.6339e-015 1.98785e-016 -6.36111e-015 -22.9712 -5.7439 -8.09495 24.6225 -3.03523 -10.2417 2.16372 -16.1936 -5.29663 4.33171 20.6801 -6.30033 13.3509 16.7283 -18.0145 -18.1136 -0.903756 7.16415 66.2076 -65.3932 -45.7161 27.604 34.0307 -51.9007 44.5114 -9.5527 -27.5796 1.33602e-008 -1.43472e-007 8.42808e-007 6.36111e-015 3.18055e-015 4.77083e-015 -1.76556e-031 -3.18055e-015 -3.18055e-015 55.1789 -26.8047 -44.6315 17.7136 -20.0379 139.095 -74.8331 37.8652 73.5426 -27.3285 -1.87305 14.585 -5.6677e-008 -1.65658e-006 2.25111e-007 1.42398e-007 1.71286e-006 1.89034e-007 -4.17448e-015 2.38542e-015 -3.18055e-015 
0.830019 17.643 -21.749 -9.93007 -1.03867 -19.3217 -2.93207e-015 0 -6.36111e-015 -7.8123 -20.9415 2.17153 -12.2597 60.3015 -9.94853 27.1378 -19.0483 32.7645 -1.19271e-015 -1.43125e-014 1.00187e-013 -2.93207e-015 0 -6.36111e-015 18.9582 -18.0568 5.77912 -0.824882 22.191 -28.6277 4.95481 3.40414 -1.68871 1.98785e-015 3.97569e-016 6.36111e-015 -2.93207e-015 0 -6.36111e-015 -22.995 -5.65358 -7.90723 24.3257 -3.08586 -10.008 2.02304 -16.2649 -5.31751 4.18812 20.6104 -6.27826 13.6411 16.8068 -18.2947 -19.2456 -0.941057 7.15502 70.0979 -64.7465 -41.9522 28.8312 33.7139 -52.4456 44.7239 -9.47624 -27.0366 1.33602e-008 -1.43472e-007 8.42808e-007 1.76556e-031 6.36111e-015 -1.59028e-015 3.18055e-015 3.18055e-015 3.18055e-015 52.5299 -26.9449 -46.8358 19.1908 -16.6049 139.058 -75.9084 37.3339 74.2104 -28.2517 -1.97023 14.3137 -5.6677e-008 -1.65658e-006 2.25111e-007 1.42398e-007 1.71286e-006 1.89034e-007 -5.96354e-015 -1.59028e-015 -1.59028e-015 
0.787782 17.6079 -21.7651 -10.0767 -0.962954 -17.9275 -5.96354e-016 -7.95139e-016 6.36111e-015 -7.5783 -21.8603 1.85282 -12.098 61.4854 -10.4987 27.283 -19.1328 32.6379 -3.97569e-016 -1.27222e-014 1.01778e-013 -5.96354e-016 -7.95139e-016 6.36111e-015 18.281 -18.1665 5.54013 -0.873656 21.7098 -28.4322 5.77608 3.98045 -1.99644 -1.59028e-015 -3.18055e-015 -6.36111e-015 -5.96354e-016 -7.95139e-016 6.36111e-015 -23.014 -5.57755 -7.73016 24.0493 -3.18383 -9.77599 1.83707 -16.3373 -5.32921 3.99291 20.5412 -6.23315 14.0114 16.9757 -18.6167 -20.4478 -0.97741 7.1405 73.8719 -63.9024 -38.3046 30.2901 33.4615 -53.0325 46.1572 -9.3037 -24.6725 1.33602e-008 -1.43472e-007 8.42808e-007 0 0 -0 0 0 -1.59028e-015 49.9317 -26.9058 -48.8671 20.5344 -13.4187 138.919 -76.8197 36.9448 74.711 -29.4221 -2.06615 13.7948 -5.6677e-008 -1.65658e-006 2.25111e-007 1.42398e-007 1.71286e-006 1.89034e-007 6.75868e-015 -1.59028e-015 -1.59028e-015 
0.741729 17.5704 -21.7819 -10.2286 -0.850851 -16.4604 -1.2921e-015 -3.97569e-016 3.18055e-015 -7.37028 -22.8655 1.48135 -11.8959 62.7104 -11.0584 27.4321 -19.2188 32.5125 2.22461e-029 -1.27222e-014 1.00187e-013 -1.2921e-015 -3.97569e-016 3.18055e-015 17.6443 -18.3197 5.32948 -0.996917 21.256 -28.523 6.71647 4.58053 -2.33032 -4.77083e-015 -1.19271e-015 -0 -1.2921e-015 -3.97569e-016 3.18055e-015 -23.026 -5.50689 -7.55968 23.7511 -3.29508 -9.54411 1.65157 -16.4068 -5.34391 3.79955 20.4746 -6.19154 14.3865 17.1827 -18.9534 -21.652 -1.01 7.10959 77.3632 -62.935 -34.9213 31.9029 33.2761 -53.6333 48.1652 -8.99245 -21.236 1.33602e-008 -1.43472e-007 8.42808e-007 -1.59028e-015 3.18055e-015 -3.18055e-015 1.59028e-015 6.36111e-015 -0 47.3475 -26.7202 -50.7738 21.8527 -10.3691 138.651 -77.5925 36.6142 75.0975 -30.7313 -2.16689 13.2051 -5.6677e-008 -1.65658e-006 2.25111e-007 1.42398e-007 1.71286e-006 1.89034e-007 -3.97569e-016 -1.59028e-015 -0 
0.692435 17.5311 -21.7993 -10.3911 -0.738761 -14.9522 -3.23025e-016 0 1.59028e-015 -7.1735 -23.9095 1.07925 -11.672 63.955 -11.6347 27.5488 -19.3135 32.3575 -3.97569e-016 -1.43125e-014 1.03368e-013 -3.23025e-016 0 1.59028e-015 17.0381 -18.4589 5.12313 -1.16623 20.7993 -28.82 7.67852 5.17249 -2.67063 -3.97569e-016 2.78299e-015 3.18055e-015 -3.23025e-016 0 1.59028e-015 -22.9949 -5.40243 -7.36649 23.3885 -3.42207 -9.28716 1.4696 -16.4697 -5.36643 3.61317 20.4141 -6.15958 14.7557 17.3691 -19.3108 -22.8062 -1.03925 7.073 80.3219 -61.9672 -32.0295 33.5649 33.1174 -54.2213 49.7578 -8.57044 -17.9723 1.33602e-008 -1.43472e-007 8.42808e-007 -3.18055e-015 -3.18055e-015 6.36111e-015 -6.36111e-015 3.18055e-015 -4.77083e-015 44.8496 -26.366 -52.426 23.1896 -7.5447 138.22 -78.2513 36.2531 75.4262 -31.9571 -2.25697 12.6479 -5.6677e-008 -1.65658e-006 2.25111e-007 1.42398e-007 1.71286e-006 1.89034e-007 -7.15625e-015 6.36111e-015 1.59028e-015 
